<svg width="27" height="29" viewBox="0 0 27 29" fill="none" xmlns="http://www.w3.org/2000/svg">
<path d="M26.1555 9.89151C26.0082 9.97229 22.5008 11.677 22.5008 15.4567C22.6661 19.7673 26.9269 21.279 27 21.279C26.9269 21.3598 26.3567 23.3383 24.6677 25.4122C23.3273 27.1988 21.8396 29 19.5804 29C17.4314 29 16.66 27.8093 14.1804 27.8093C11.5175 27.8093 10.764 29 8.72524 29C6.46605 29 4.86809 27.1023 3.4546 25.3325C1.61826 23.0162 0.0574287 19.3812 0.00232651 15.891C-0.0348076 14.0416 0.370073 12.2236 1.39785 10.6794C2.84847 8.52355 5.43828 7.06012 8.26646 7.01187C10.4334 6.94787 12.362 8.31479 13.6844 8.31479C14.9518 8.31479 17.3212 7.01187 20.002 7.01187C21.1592 7.01291 24.2449 7.31819 26.1555 9.89151ZM13.5012 6.6426C13.1154 4.95362 14.1804 3.26465 15.1722 2.18727C16.4395 0.884351 18.4412 0 20.1673 0C20.2775 1.68897 19.5792 3.34543 18.331 4.55184C17.211 5.85476 15.2824 6.83562 13.5012 6.6426Z" fill="white"/>
</svg>
